<?xml version="1.0" encoding="utf-8"?>
<!-- Generator: Adobe Illustrator 26.1.0, SVG Export Plug-In . SVG Version: 6.00 Build 0)  -->
<svg version="1.1" id="Layer_1" xmlns="http://www.w3.org/2000/svg" xmlns:xlink="http://www.w3.org/1999/xlink" x="0px" y="0px"
	 viewBox="0 0 512 512" style="enable-background:new 0 0 512 512;" xml:space="preserve">
<style type="text/css">
	.st0{fill:#40c057;}
</style>
<g id="icomoon-ignore">
</g>
<path class="st0" d="M507.6,3.1c-73.5,30.4-159.4,0-251.3,0C142.7,3.1,85.8,16.5,38,85.3C15.5,117.5,3.1,155.8,1,198.9
	c-1.8,38.4,4.7,80.9,19.3,126.6C70.2,176.8,173.8,86.5,334.5,86.5c0,0-114.6,13.2-209.1,135c-0.1,0.1-1.3,1.6-3.5,4.5
	c-19,25.2-35.5,53.9-47.9,86.4C53,362,33.6,430,33.6,512h67.3c0,0-10.2-63.9,7.6-137.3c29.4,3.9,55.7,5.9,79.3,5.9
	c61.9,0,105.9-13.3,138.5-41.9c29.2-25.6,52.1-51.2,65.2-69.6C481.5,142.4,507.6,3.1,507.6,3.1z"/>
</svg>
