<svg id="Layer_1" data-name="Layer 1" xmlns="http://www.w3.org/2000/svg" viewBox="0 0 685.32 269.81"><defs><style>.cls-1,.cls-2{fill:#40c057;}.cls-2{font-size:86.46px;}.cls-2,.cls-5{font-family:Inter-ExtraBold, Inter;font-weight:800;}.cls-3{letter-spacing:-0.03em;}.cls-4{letter-spacing:0em;}.cls-5{font-size:86.65px;}</style></defs><path class="cls-1" d="M241.32,0c-35,14.47-75.88,0-119.64,0C67.6,0,40.51,6.38,17.75,39.13,7,54.46,1.14,72.7.14,93.22c-.86,18.28,2.24,38.51,9.19,60.27C33.08,82.7,82.41,39.71,158.91,39.71c0,0-54.56,6.28-99.55,64.27,0,0-.61.76-1.66,2.14a167.21,167.21,0,0,0-22.81,41.13,243.8,243.8,0,0,0-19.23,95h32a184.47,184.47,0,0,1,3.62-65.37,289,289,0,0,0,37.75,2.81c29.47,0,50.42-6.33,65.94-19.95,13.9-12.18,24.8-24.37,31-33.13C228.9,66.32,241.32,0,241.32,0Z"/><text class="cls-2" transform="translate(237.39 142.63)">G<tspan class="cls-3" x="66.29" y="0">r</tspan><tspan class="cls-4" x="102.21" y="0">eenLeaf</tspan></text><text class="cls-5" transform="translate(241.39 233.69)">Solutions</text></svg>